<?xml version="1.0" encoding="utf-8"?>
<!-- Generator: Adobe Illustrator 22.0.0, SVG Export Plug-In . SVG Version: 6.00 Build 0)  -->
<svg version="1.1" id="图层_1" xmlns="http://www.w3.org/2000/svg" xmlns:xlink="http://www.w3.org/1999/xlink" x="0px" y="0px"
	 viewBox="0 0 30.8 148.8" style="enable-background:new 0 0 30.8 148.8;" xml:space="preserve">
<style type="text/css">
	.st0{fill:#498AC9;}
	.st1{fill:#FFFFFF;}
</style>
<g>
	<g>
		<rect x="0.3" y="58.2" class="st0" width="30.1" height="90.2"/>
		<g>
			<g>
				<path class="st0" d="M22.7,6.6h5.2V3.7h-2.6l1.3-3.2h-3.1l-1.3,3.2h-2l-1.4-3.3h-3.1l1.4,3.3h-2.6v2.9h5.2v4.6h-5.6v2.9H19
					c-0.7,2.1-1.8,5.2-5.1,7.5v3.3c2.7-1.1,5.3-4.1,7.1-7.3c1.7,3.2,4.6,6.2,7.3,7.3v-3.3c-3.3-2.2-4.4-5.3-5.1-7.5h5.1v-2.9h-5.6
					V6.6z"/>
				<path class="st0" d="M2.5,3.3h1.3v16.5c-0.4,0.1-0.8,0.3-1.3,0.4v3.1c2.7-0.8,5.6-2,7.4-2.9V25h3.2V3.3h0V0.4H2.5V3.3z M7,9.2
					h2.9v2.9H7V9.2z M7,18.6V15h2.9v2.4C9.2,17.7,8.2,18.2,7,18.6z M9.9,6.2H7V3.3h2.9V6.2z"/>
			</g>
			<g>
				<polygon class="st0" points="7.4,43.8 10.6,43.8 10.6,36.5 12.5,41.7 15.8,41.7 13.1,34.3 10.6,34.3 10.6,33.1 15.4,33.1 
					15.4,30.1 10.6,30.1 10.6,28.2 7.4,28.2 7.4,30.1 2.7,30.1 2.7,33.1 7.4,33.1 				"/>
				<rect x="3" y="34.3" class="st0" width="3.2" height="8.3"/>
				<path class="st0" d="M19.6,43.8H24h2.6h0.6V28.2h-0.6H24h-4.4h-2.8h-0.4v15.6h0.4H19.6z M19.6,41.3v-1.8H24v1.8H19.6z
					 M19.6,36.9v-1.8H24v1.8H19.6z M24,30.8v1.8h-4.4v-1.8H24z"/>
				<rect x="3" y="44.9" class="st0" width="3.2" height="6.8"/>
				<polygon class="st0" points="14.8,44.9 16.2,48.7 19.6,48.7 18.3,44.9 				"/>
				<polygon class="st0" points="25.7,44.9 22.2,44.9 24.6,51.7 28.1,51.7 				"/>
				<path class="st0" d="M14.7,49.7c-3.4,0-3.9-3.2-4.1-4.8H7.4c0.3,4.3,1.7,7.8,7.6,7.8h9.1l-1.1-3H14.7z"/>
			</g>
		</g>
	</g>
	<g>
		<path class="st1" d="M10.5,109.1c0,1.3,0.6,2.8,1.9,3.8l0,0l0,0l-1.7,0v3.2h11.6v-3.2h-6.6c-1.2,0-2.4-0.9-2.4-2.6
			c0-1.3,0.9-2.7,2.4-2.7h6.6v-3.2h-7.2C12.4,104.4,10.5,106.3,10.5,109.1"/>
		<polygon class="st1" points="10.7,81.8 18.6,84.7 10.7,87.5 10.7,91.2 22.3,86.4 22.3,82.9 10.7,78.1 		"/>
		<path class="st1" d="M18.7,119.4c1,1.3,1.2,2.1,1.2,3.3c0,1.1-0.3,2-0.9,2.6l-3.4-8.1c-1.3,0.2-2.4,0.7-3.2,1.4
			c-1.2,1.1-1.9,2.6-1.9,4.6c0,3.5,2.6,6.1,6,6.1c3.5,0,6-2.6,6-6.5c0-2.2-1-4.4-2.2-5.4L18.7,119.4z M14.2,125.5
			c-0.7-0.5-1.2-1.4-1.2-2.4c0-1.1,0.7-2,1.6-2.5l2.3,5.6C15.8,126.3,14.8,126,14.2,125.5"/>
		<polygon class="st1" points="19.3,129.6 19.3,136.8 7.2,136.8 7.2,140 22.3,140 22.3,129.6 		"/>
		<path class="st1" d="M22.5,72.4c0,3.5-2.6,6.2-6,6.2c-3.4,0-6-2.7-6-6.2c0-3.5,2.6-6.2,6-6.2C19.8,66.2,22.5,68.9,22.5,72.4
			 M13.2,72.4c0,1.8,1.3,3.1,3.3,3.1c1.8,0,3.3-1.4,3.3-3.1c0-1.8-1.4-3.1-3.3-3.1C14.6,69.3,13.2,70.7,13.2,72.4"/>
		<path class="st1" d="M22.5,96.9c0,3.5-2.6,6.2-6,6.2c-3.4,0-6-2.7-6-6.2c0-3.5,2.6-6.2,6-6.2C19.8,90.7,22.5,93.4,22.5,96.9
			 M13.2,96.9c0,1.8,1.3,3.1,3.3,3.1c1.8,0,3.3-1.4,3.3-3.1c0-1.8-1.4-3.1-3.3-3.1C14.6,93.8,13.2,95.2,13.2,96.9"/>
	</g>
</g>
</svg>
